<mxfile host="app.diagrams.net" modified="2022-05-18T06:29:59.747Z" agent="5.0 (Macintosh; Intel Mac OS X 10_15_7) AppleWebKit/537.36 (KHTML, like Gecko) Chrome/101.0.4951.64 Safari/537.36" etag="Y0QoRZ2W3v0Mz9MDiyjf" version="18.0.7" type="github">
  <diagram name="Page-1" id="e7e014a7-5840-1c2e-5031-d8a46d1fe8dd">
    <mxGraphModel dx="1018" dy="530" grid="1" gridSize="10" guides="1" tooltips="1" connect="1" arrows="1" fold="1" page="1" pageScale="1" pageWidth="1169" pageHeight="826" background="none" math="0" shadow="0">
      <root>
        <mxCell id="0" />
        <mxCell id="1" parent="0" />
        <mxCell id="GQb-V0ArUIrdlXsyg9QD-69" value="消息模板" style="rounded=0;whiteSpace=wrap;html=1;verticalAlign=bottom;" vertex="1" parent="1">
          <mxGeometry x="194" y="460" width="1156" height="160" as="geometry" />
        </mxCell>
        <mxCell id="GQb-V0ArUIrdlXsyg9QD-42" value="渠道" style="rounded=0;whiteSpace=wrap;html=1;fillColor=#d5e8d4;strokeColor=#82b366;" vertex="1" parent="1">
          <mxGeometry x="194" y="240" width="1156" height="30" as="geometry" />
        </mxCell>
        <mxCell id="GQb-V0ArUIrdlXsyg9QD-43" value="站内信" style="rounded=0;whiteSpace=wrap;html=1;fillColor=#d5e8d4;strokeColor=#82b366;" vertex="1" parent="1">
          <mxGeometry x="194" y="280" width="283" height="30" as="geometry" />
        </mxCell>
        <mxCell id="GQb-V0ArUIrdlXsyg9QD-44" value="短信" style="rounded=0;whiteSpace=wrap;html=1;fillColor=#d5e8d4;strokeColor=#82b366;" vertex="1" parent="1">
          <mxGeometry x="487" y="280" width="283" height="30" as="geometry" />
        </mxCell>
        <mxCell id="GQb-V0ArUIrdlXsyg9QD-45" value="邮箱" style="rounded=0;whiteSpace=wrap;html=1;fillColor=#d5e8d4;strokeColor=#82b366;" vertex="1" parent="1">
          <mxGeometry x="778" y="280" width="283" height="30" as="geometry" />
        </mxCell>
        <mxCell id="GQb-V0ArUIrdlXsyg9QD-46" value="……" style="rounded=0;whiteSpace=wrap;html=1;fillColor=#d5e8d4;strokeColor=#82b366;" vertex="1" parent="1">
          <mxGeometry x="1067" y="280" width="283" height="30" as="geometry" />
        </mxCell>
        <mxCell id="GQb-V0ArUIrdlXsyg9QD-48" value="租户" style="rounded=0;whiteSpace=wrap;html=1;fillColor=#fff2cc;strokeColor=#d6b656;" vertex="1" parent="1">
          <mxGeometry x="194" y="340" width="1156" height="30" as="geometry" />
        </mxCell>
        <mxCell id="GQb-V0ArUIrdlXsyg9QD-49" value="内部租户" style="rounded=0;whiteSpace=wrap;html=1;fillColor=#fff2cc;strokeColor=#d6b656;" vertex="1" parent="1">
          <mxGeometry x="194" y="380" width="576" height="30" as="geometry" />
        </mxCell>
        <mxCell id="GQb-V0ArUIrdlXsyg9QD-50" value="外部租户" style="rounded=0;whiteSpace=wrap;html=1;fillColor=#fff2cc;strokeColor=#d6b656;" vertex="1" parent="1">
          <mxGeometry x="774" y="380" width="576" height="30" as="geometry" />
        </mxCell>
        <mxCell id="GQb-V0ArUIrdlXsyg9QD-51" value="boss" style="rounded=0;whiteSpace=wrap;html=1;fillColor=#fff2cc;strokeColor=#d6b656;" vertex="1" parent="1">
          <mxGeometry x="194" y="420" width="186" height="20" as="geometry" />
        </mxCell>
        <mxCell id="GQb-V0ArUIrdlXsyg9QD-52" value="cornerstone" style="rounded=0;whiteSpace=wrap;html=1;fillColor=#fff2cc;strokeColor=#d6b656;" vertex="1" parent="1">
          <mxGeometry x="389" y="420" width="186" height="20" as="geometry" />
        </mxCell>
        <mxCell id="GQb-V0ArUIrdlXsyg9QD-53" value="……" style="rounded=0;whiteSpace=wrap;html=1;fillColor=#fff2cc;strokeColor=#d6b656;" vertex="1" parent="1">
          <mxGeometry x="583" y="420" width="186" height="20" as="geometry" />
        </mxCell>
        <mxCell id="GQb-V0ArUIrdlXsyg9QD-54" value="外部租户1" style="rounded=0;whiteSpace=wrap;html=1;fillColor=#fff2cc;strokeColor=#d6b656;" vertex="1" parent="1">
          <mxGeometry x="774" y="420" width="186" height="20" as="geometry" />
        </mxCell>
        <mxCell id="GQb-V0ArUIrdlXsyg9QD-55" value="外部租户2" style="rounded=0;whiteSpace=wrap;html=1;fillColor=#fff2cc;strokeColor=#d6b656;" vertex="1" parent="1">
          <mxGeometry x="970" y="420" width="186" height="20" as="geometry" />
        </mxCell>
        <mxCell id="GQb-V0ArUIrdlXsyg9QD-56" value="外部租户n" style="rounded=0;whiteSpace=wrap;html=1;fillColor=#fff2cc;strokeColor=#d6b656;" vertex="1" parent="1">
          <mxGeometry x="1270" y="420" width="80" height="20" as="geometry" />
        </mxCell>
        <mxCell id="GQb-V0ArUIrdlXsyg9QD-57" value="……" style="rounded=0;whiteSpace=wrap;html=1;fillColor=#fff2cc;strokeColor=#d6b656;" vertex="1" parent="1">
          <mxGeometry x="1169" y="420" width="80" height="20" as="geometry" />
        </mxCell>
        <mxCell id="GQb-V0ArUIrdlXsyg9QD-58" value="模板一" style="rounded=0;whiteSpace=wrap;html=1;fillColor=#f5f5f5;fontColor=#333333;strokeColor=#666666;" vertex="1" parent="1">
          <mxGeometry x="230" y="470" width="46" height="110" as="geometry" />
        </mxCell>
        <mxCell id="GQb-V0ArUIrdlXsyg9QD-59" value="模板二" style="rounded=0;whiteSpace=wrap;html=1;fillColor=#f5f5f5;fontColor=#333333;strokeColor=#666666;" vertex="1" parent="1">
          <mxGeometry x="300" y="470" width="46" height="110" as="geometry" />
        </mxCell>
        <mxCell id="GQb-V0ArUIrdlXsyg9QD-60" value="模板三" style="rounded=0;whiteSpace=wrap;html=1;fillColor=#f5f5f5;fontColor=#333333;strokeColor=#666666;" vertex="1" parent="1">
          <mxGeometry x="420" y="470" width="46" height="110" as="geometry" />
        </mxCell>
        <mxCell id="GQb-V0ArUIrdlXsyg9QD-61" value="模板四" style="rounded=0;whiteSpace=wrap;html=1;fillColor=#f5f5f5;fontColor=#333333;strokeColor=#666666;" vertex="1" parent="1">
          <mxGeometry x="500" y="470" width="46" height="110" as="geometry" />
        </mxCell>
        <mxCell id="GQb-V0ArUIrdlXsyg9QD-62" value="模板五" style="rounded=0;whiteSpace=wrap;html=1;fillColor=#f5f5f5;fontColor=#333333;strokeColor=#666666;" vertex="1" parent="1">
          <mxGeometry x="613" y="470" width="46" height="110" as="geometry" />
        </mxCell>
        <mxCell id="GQb-V0ArUIrdlXsyg9QD-63" value="模板六" style="rounded=0;whiteSpace=wrap;html=1;fillColor=#f5f5f5;fontColor=#333333;strokeColor=#666666;" vertex="1" parent="1">
          <mxGeometry x="693" y="470" width="46" height="110" as="geometry" />
        </mxCell>
        <mxCell id="GQb-V0ArUIrdlXsyg9QD-64" value="模板七" style="rounded=0;whiteSpace=wrap;html=1;fillColor=#f5f5f5;fontColor=#333333;strokeColor=#666666;" vertex="1" parent="1">
          <mxGeometry x="804" y="470" width="46" height="110" as="geometry" />
        </mxCell>
        <mxCell id="GQb-V0ArUIrdlXsyg9QD-65" value="模板八" style="rounded=0;whiteSpace=wrap;html=1;fillColor=#f5f5f5;fontColor=#333333;strokeColor=#666666;" vertex="1" parent="1">
          <mxGeometry x="884" y="470" width="46" height="110" as="geometry" />
        </mxCell>
        <mxCell id="GQb-V0ArUIrdlXsyg9QD-66" value="模板九" style="rounded=0;whiteSpace=wrap;html=1;fillColor=#f5f5f5;fontColor=#333333;strokeColor=#666666;" vertex="1" parent="1">
          <mxGeometry x="999" y="470" width="46" height="110" as="geometry" />
        </mxCell>
        <mxCell id="GQb-V0ArUIrdlXsyg9QD-67" value="模板十" style="rounded=0;whiteSpace=wrap;html=1;fillColor=#f5f5f5;fontColor=#333333;strokeColor=#666666;" vertex="1" parent="1">
          <mxGeometry x="1079" y="470" width="46" height="110" as="geometry" />
        </mxCell>
        <mxCell id="GQb-V0ArUIrdlXsyg9QD-68" value="模板n" style="rounded=0;whiteSpace=wrap;html=1;fillColor=#f5f5f5;fontColor=#333333;strokeColor=#666666;" vertex="1" parent="1">
          <mxGeometry x="1287" y="470" width="46" height="110" as="geometry" />
        </mxCell>
      </root>
    </mxGraphModel>
  </diagram>
</mxfile>
